<svg width="16" height="19" viewBox="0 0 16 19" fill="none" xmlns="http://www.w3.org/2000/svg">
<path d="M9.94629 0C10.8298 5.35917e-05 11.5457 0.716166 11.5459 1.59961V3H15.3672C15.6654 3 15.9125 3.21784 15.959 3.50293L15.9668 3.59961C15.9668 3.89774 15.7498 4.14576 15.4648 4.19238L15.3672 4.2002H14.373L13.6328 15.2998C13.5276 16.8755 12.2189 18.0995 10.6396 18.0996H5.25293C3.67363 18.0996 2.36495 16.8756 2.25977 15.2998L1.51855 4.2002H0.599609C0.30155 4.20001 0.0542925 3.98223 0.0078125 3.69727L0 3.59961C0.000189855 3.30155 0.217967 3.05429 0.50293 3.00781L0.599609 3H4.3457V1.59961C4.34591 0.716133 5.06276 0 5.94629 0H9.94629ZM3.45703 15.2197C3.52007 16.1653 4.3053 16.9004 5.25293 16.9004H10.6396C11.5872 16.9003 12.3725 16.1652 12.4355 15.2197L13.1631 4.2998H2.72852L3.45703 15.2197ZM7.94629 6.02051C8.24448 6.02056 8.49159 6.23838 8.53809 6.52344L8.5459 6.62012V14.5068C8.5459 14.8382 8.27761 15.1074 7.94629 15.1074C7.64813 15.1074 7.40108 14.8895 7.35449 14.6045L7.3457 14.5068V6.62012C7.34586 6.28888 7.61502 6.02051 7.94629 6.02051ZM4.94531 6.02637C5.24314 6.01076 5.50212 6.21578 5.56348 6.49805L5.57617 6.59473L5.98828 14.4707C6.00536 14.8014 5.75166 15.0833 5.4209 15.1006C5.12314 15.1162 4.86513 14.9121 4.80371 14.6299L4.79004 14.5332L4.37793 6.65723C4.36059 6.32632 4.61442 6.04373 4.94531 6.02637ZM11.0205 6.02637C11.3183 6.04197 11.5544 6.27246 11.5859 6.55957L11.5889 6.65723L11.1758 14.5332C11.1583 14.864 10.8758 15.1179 10.5449 15.1006C10.2473 15.0848 10.012 14.8544 9.98047 14.5674L9.97754 14.4707L10.3906 6.59473C10.408 6.26395 10.6898 6.00927 11.0205 6.02637ZM5.94629 1.2002C5.72551 1.2002 5.54611 1.37887 5.5459 1.59961V3H10.3457V1.59961C10.3455 1.37891 10.167 1.20025 9.94629 1.2002H5.94629Z" fill="#EB5545"/>
</svg>
