<svg width="50" height="50" viewBox="0 0 50 50" fill="none" xmlns="http://www.w3.org/2000/svg">
<circle cx="25" cy="25" r="25" fill="#7F7F7F"/>
<path d="M18 33.4739V16.5261C17.9974 16.2247 18.1276 15.9297 18.3738 15.6785C18.62 15.4274 18.9712 15.2316 19.3826 15.116C19.794 15.0004 20.2469 14.9704 20.6836 15.0296C21.1203 15.0889 21.5211 15.2349 21.8347 15.4488L34.3479 23.9303C34.7656 24.2146 35 24.5992 35 25C35 25.4008 34.7656 25.7854 34.3479 26.0697L21.8347 34.5512C21.5211 34.7651 21.1203 34.9111 20.6836 34.9704C20.2469 35.0296 19.794 34.9996 19.3826 34.884C18.9712 34.7684 18.62 34.5726 18.3738 34.3215C18.1276 34.0703 17.9974 33.7753 18 33.4739Z" fill="white"/>
</svg>
