<svg width="31" height="26" viewBox="0 0 31 26" fill="none" xmlns="http://www.w3.org/2000/svg">
<path d="M0.468208 12.1503C3.6396 10.4172 7.17973 8.97067 10.4874 7.5168C16.178 5.13547 21.8912 2.79542 27.662 0.616854C28.7848 0.24567 30.8022 -0.117281 31 1.53345C30.8916 3.87014 30.446 6.19315 30.1404 8.51616C29.3647 13.6247 28.468 18.7157 27.5937 23.8074C27.2924 25.5034 25.1509 26.3814 23.7807 25.296C20.4877 23.0892 17.1693 20.9039 13.9184 18.6459C12.8534 17.5724 13.8409 16.0306 14.792 15.264C17.5043 12.6122 20.3806 10.3592 22.9511 7.57029C23.6445 5.90915 21.5958 7.3091 20.92 7.73809C17.2069 10.2766 13.5847 12.9702 9.67 15.2012C7.67036 16.2933 5.33974 15.3601 3.341 14.7507C1.54892 14.0145 -1.0772 13.2729 0.468027 12.1505L0.468208 12.1503Z" fill="white"/>
</svg>
